<svg width="441" height="329" viewBox="0 0 441 329" fill="none" xmlns="http://www.w3.org/2000/svg">
<rect width="441" height="329" fill="#F5F5F5"/>
<path d="M57.8747 138.607C76.8032 140.255 81.2862 140.645 81.2862 140.645C81.2862 140.645 45.9174 275.957 31.4622 283.018C17.0069 290.079 0.368169 280.311 0.368169 280.311C0.368169 280.311 38.9463 136.959 57.8747 138.607Z" fill="#003952"/>
<path d="M69.2228 185.478L80.7562 139.972L120.58 272.604L87.8233 282.439L69.2228 185.478Z" fill="#00B7C4"/>
<path d="M155.223 185.478L166.756 139.972L206.58 272.604L173.823 282.439L155.223 185.478Z" fill="#00B7C4"/>
<path d="M256.223 124.088L267.756 78.582L307.58 211.214L274.823 221.049L256.223 124.088Z" fill="#AA336A"/>
<path d="M342.223 124.088L353.756 78.582L393.58 211.214L360.823 221.049L342.223 124.088Z" fill="#AA336A"/>
<path d="M143.875 138.607C162.803 140.255 167.286 140.645 167.286 140.645C167.286 140.645 131.917 275.957 117.462 283.018C103.007 290.079 86.3682 280.311 86.3682 280.311C86.3682 280.311 124.946 136.959 143.875 138.607Z" fill="#003952"/>
<path d="M331.875 77.635C350.803 79.2829 355.286 79.6732 355.286 79.6732C355.286 79.6732 319.917 214.985 305.462 222.046C291.007 229.107 274.368 219.339 274.368 219.339C274.368 219.339 312.946 75.9872 331.875 77.635Z" fill="#003952"/>
<path d="M416.875 77.635C435.803 79.2829 440.286 79.6732 440.286 79.6732C440.286 79.6732 404.917 214.985 390.462 222.046C376.007 229.107 359.368 219.339 359.368 219.339C359.368 219.339 397.946 75.9872 416.875 77.635Z" fill="#003952"/>
<path d="M244.132 77.9635C263.309 78.5373 267.851 78.6732 267.851 78.6732C267.851 78.6732 219.425 270.439 204.023 281.593C188.621 292.748 172.521 280.651 172.521 280.651C172.521 280.651 224.956 77.3898 244.132 77.9635Z" fill="#003952"/>
<ellipse cx="70" cy="100.5" rx="22" ry="21.5" fill="#00B7C4"/>
<ellipse cx="149" cy="100.5" rx="22" ry="21.5" fill="#00B7C4"/>
<ellipse cx="293" cy="260.5" rx="22" ry="21.5" fill="#AA336A"/>
<ellipse cx="235" cy="34.5" rx="36" ry="34.5" fill="#AA336A"/>
<ellipse cx="381" cy="260.5" rx="22" ry="21.5" fill="#AA336A"/>
<path d="M1.21236 302.545H7.84943L14.8594 319.648H15.1577L22.1676 302.545H28.8047V328H23.5845V311.432H23.3732L16.7859 327.876H13.2312L6.64382 311.37H6.43253V328H1.21236V302.545ZM33.2387 328V302.545H50.3907V306.983H38.6205V313.048H49.5083V317.485H38.6205V323.563H50.4404V328H33.2387ZM59.0568 328H53.2898L62.0771 302.545H69.0124L77.7873 328H72.0202L65.6442 308.362H65.4453L59.0568 328ZM58.6964 317.995H72.3185V322.196H58.6964V317.995ZM80.851 328V302.545H86.2328V323.563H97.1454V328H80.851ZM114.518 309.866C114.419 308.864 113.992 308.085 113.238 307.529C112.484 306.974 111.46 306.697 110.168 306.697C109.29 306.697 108.548 306.821 107.943 307.07C107.338 307.31 106.874 307.645 106.551 308.076C106.236 308.507 106.079 308.996 106.079 309.543C106.062 309.999 106.157 310.396 106.365 310.736C106.58 311.076 106.874 311.37 107.247 311.619C107.62 311.859 108.051 312.07 108.54 312.252C109.029 312.426 109.551 312.576 110.106 312.7L112.393 313.247C113.503 313.495 114.522 313.827 115.45 314.241C116.378 314.655 117.182 315.165 117.861 315.77C118.541 316.375 119.067 317.087 119.44 317.908C119.821 318.728 120.016 319.668 120.024 320.729C120.016 322.287 119.618 323.637 118.831 324.781C118.052 325.916 116.925 326.799 115.45 327.428C113.984 328.05 112.215 328.36 110.143 328.36C108.088 328.36 106.298 328.046 104.774 327.416C103.257 326.786 102.072 325.854 101.219 324.619C100.374 323.376 99.9305 321.839 99.8891 320.008H105.097C105.155 320.862 105.399 321.574 105.83 322.146C106.269 322.709 106.853 323.136 107.583 323.426C108.32 323.708 109.153 323.849 110.081 323.849C110.992 323.849 111.784 323.716 112.455 323.451C113.134 323.186 113.66 322.817 114.033 322.345C114.406 321.873 114.593 321.33 114.593 320.717C114.593 320.145 114.423 319.664 114.083 319.275C113.752 318.885 113.263 318.554 112.616 318.281C111.978 318.007 111.195 317.759 110.267 317.535L107.496 316.839C105.35 316.317 103.655 315.501 102.412 314.39C101.169 313.28 100.552 311.784 100.56 309.903C100.552 308.362 100.962 307.016 101.791 305.864C102.628 304.712 103.775 303.813 105.234 303.167C106.692 302.521 108.349 302.197 110.205 302.197C112.094 302.197 113.743 302.521 115.152 303.167C116.569 303.813 117.671 304.712 118.458 305.864C119.245 307.016 119.651 308.35 119.676 309.866H114.518Z" fill="#16425A"/>
<path d="M231.604 34.2727C231.604 37.0485 231.078 39.41 230.025 41.3572C228.981 43.3045 227.556 44.7918 225.75 45.8192C223.952 46.8384 221.93 47.348 219.684 47.348C217.422 47.348 215.392 46.8343 213.594 45.8068C211.796 44.7794 210.375 43.292 209.331 41.3448C208.287 39.3976 207.765 37.0402 207.765 34.2727C207.765 31.4969 208.287 29.1354 209.331 27.1882C210.375 25.241 211.796 23.7578 213.594 22.7386C215.392 21.7112 217.422 21.1974 219.684 21.1974C221.93 21.1974 223.952 21.7112 225.75 22.7386C227.556 23.7578 228.981 25.241 230.025 27.1882C231.078 29.1354 231.604 31.4969 231.604 34.2727ZM226.147 34.2727C226.147 32.4747 225.878 30.9583 225.339 29.7237C224.809 28.4891 224.059 27.5528 223.09 26.9148C222.12 26.2768 220.985 25.9577 219.684 25.9577C218.383 25.9577 217.248 26.2768 216.279 26.9148C215.309 27.5528 214.555 28.4891 214.017 29.7237C213.486 30.9583 213.221 32.4747 213.221 34.2727C213.221 36.0708 213.486 37.5871 214.017 38.8217C214.555 40.0563 215.309 40.9927 216.279 41.6307C217.248 42.2687 218.383 42.5877 219.684 42.5877C220.985 42.5877 222.12 42.2687 223.09 41.6307C224.059 40.9927 224.809 40.0563 225.339 38.8217C225.878 37.5871 226.147 36.0708 226.147 34.2727ZM256.881 21.5455V47H252.233L241.158 30.979H240.972V47H235.59V21.5455H240.313L251.301 37.554H251.524V21.5455H256.881Z" fill="#0C3451"/>
<path d="M300.942 68L293.659 42.5455H299.538L303.751 60.2319H303.962L308.611 42.5455H313.645L318.281 60.2692H318.504L322.718 42.5455H328.597L321.313 68H316.068L311.221 51.3576H311.022L306.187 68H300.942ZM331.477 68V42.5455H336.859V53.0479H347.784V42.5455H353.153V68H347.784V57.4851H336.859V68H331.477ZM357.59 68V42.5455H374.742V46.9826H362.972V53.0479H373.86V57.4851H362.972V63.5629H374.792V68H357.59ZM379.021 68V42.5455H396.173V46.9826H384.403V53.0479H395.29V57.4851H384.403V63.5629H396.223V68H379.021ZM400.452 68V42.5455H405.833V63.5629H416.746V68H400.452ZM434.119 49.8661C434.019 48.8635 433.592 48.0846 432.838 47.5295C432.084 46.9743 431.061 46.6967 429.768 46.6967C428.89 46.6967 428.149 46.821 427.544 47.0696C426.939 47.3099 426.475 47.6455 426.152 48.0763C425.837 48.5072 425.679 48.9961 425.679 49.543C425.663 49.9987 425.758 50.3964 425.965 50.7362C426.181 51.0759 426.475 51.37 426.848 51.6186C427.221 51.8589 427.651 52.0702 428.14 52.2525C428.629 52.4265 429.151 52.5756 429.706 52.6999L431.993 53.2468C433.104 53.4954 434.123 53.8268 435.051 54.2411C435.979 54.6554 436.783 55.165 437.462 55.7699C438.141 56.3748 438.668 57.0874 439.04 57.9077C439.422 58.728 439.616 59.6684 439.625 60.729C439.616 62.2868 439.219 63.6374 438.431 64.7809C437.653 65.9161 436.526 66.7985 435.051 67.4283C433.584 68.0497 431.815 68.3604 429.744 68.3604C427.689 68.3604 425.899 68.0456 424.374 67.4158C422.858 66.7861 421.673 65.8539 420.82 64.6193C419.974 63.3764 419.531 61.8394 419.49 60.0082H424.697C424.755 60.8616 425 61.5742 425.431 62.146C425.87 62.7094 426.454 63.1361 427.183 63.4261C427.921 63.7079 428.753 63.8487 429.681 63.8487C430.593 63.8487 431.384 63.7161 432.055 63.451C432.735 63.1858 433.261 62.8171 433.634 62.3448C434.007 61.8725 434.193 61.3298 434.193 60.7166C434.193 60.1449 434.023 59.6643 433.684 59.2749C433.352 58.8854 432.863 58.554 432.217 58.2805C431.579 58.0071 430.796 57.7585 429.868 57.5348L427.096 56.8388C424.95 56.3168 423.256 55.5006 422.013 54.3903C420.77 53.2799 420.153 51.7843 420.161 49.9034C420.153 48.3622 420.563 47.0157 421.391 45.864C422.228 44.7122 423.376 43.8132 424.834 43.1669C426.292 42.5206 427.95 42.1974 429.806 42.1974C431.695 42.1974 433.344 42.5206 434.752 43.1669C436.169 43.8132 437.271 44.7122 438.059 45.864C438.846 47.0157 439.252 48.3498 439.277 49.8661H434.119Z" fill="#00354F"/>
</svg>
